solid 
facet normal 0.0074700136 0.037908338 -0.9992533
 outer loop
  vertex 0.026628843 1.5466449 -1.1050998
  vertex 0.020717865 1.4647895 -1.1082493
  vertex -0.033028502 1.5406905 -1.1057717
 endloop
endfacet
facet normal 0.08334682 0.3277617 -0.94107676
 outer loop
  vertex 0.14805213 1.6592255 -0.9666814
  vertex -0.045645315 1.6156161 -0.99902475
  vertex -0.11781076 1.6880324 -0.9801947
 endloop
endfacet
facet normal -0.82062554 -0.1776311 -0.54315823
 outer loop
  vertex -0.09205902 1.3953323 -0.9981218
  vertex -0.23040575 1.2751291 -0.74979144
  vertex -0.17334296 1.5957614 -0.9408618
 endloop
endfacet
facet normal -0.9615279 0.0074805 -0.27460548
 outer loop
  vertex -0.26276448 1.6065468 -0.6274596
  vertex -0.17334296 1.5957614 -0.9408618
  vertex -0.23040575 1.2751291 -0.74979144
 endloop
endfacet
facet normal -0.83626586 0.45308423 -0.30882692
 outer loop
  vertex -0.26276448 1.6065468 -0.6274596
  vertex -0.19648646 1.69386 -0.6788339
  vertex -0.110497385 1.7596756 -0.81512296
 endloop
endfacet
facet normal -0.04137457 0.99769723 0.053743668
 outer loop
  vertex -0.07224796 1.7534657 -0.6703948
  vertex 0.100538395 1.7672442 -0.79316044
  vertex -0.110497385 1.7596756 -0.81512296
 endloop
endfacet
facet normal -0.53349596 -0.35267955 -0.76876473
 outer loop
  vertex -0.033028502 1.5406905 -1.1057717
  vertex 0.020717865 1.4647895 -1.1082493
  vertex -0.09205902 1.3953323 -0.9981218
 endloop
endfacet
facet normal -0.74881035 0.46136156 -0.475845
 outer loop
  vertex -0.015180167 1.4085529 -1.1062835
  vertex -0.09205902 1.3953323 -0.9981218
  vertex 0.020717865 1.4647895 -1.1082493
 endloop
endfacet
facet normal -0.5788016 -0.6510957 -0.49098176
 outer loop
  vertex -0.026189197 1.278221 -0.920471
  vertex -0.09205902 1.3953323 -0.9981218
  vertex -0.015180167 1.4085529 -1.1062835
 endloop
endfacet
facet normal -0.9897828 -0.031369742 -0.13908991
 outer loop
  vertex -0.2706036 0.060866233 -0.44736958
  vertex -0.291045 0.9935106 -0.5122503
  vertex -0.2627384 0.7092785 -0.64957947
 endloop
endfacet
facet normal -0.77552706 -0.0056768847 0.63128877
 outer loop
  vertex -0.20009987 0.6714994 -0.35526586
  vertex -0.2706036 0.060866233 -0.44736958
  vertex -0.19655779 0.24677816 -0.3547338
 endloop
endfacet
facet normal 0.55578196 -0.136425 -0.82005763
 outer loop
  vertex -0.1165026 0.038818512 -0.4477081
  vertex -0.20033422 0.15283284 -0.5234912
  vertex -0.078358494 0.6182124 -0.5182446
 endloop
endfacet
facet normal 0.8023035 0.0074387495 0.59687
 outer loop
  vertex -0.20009987 0.6714994 -0.35526586
  vertex -0.19655779 0.24677816 -0.3547338
  vertex -0.078358494 0.6182124 -0.5182446
 endloop
endfacet
facet normal 0.78350216 0.02401113 0.620925
 outer loop
  vertex -0.1165026 0.038818512 -0.4477081
  vertex -0.078358494 0.6182124 -0.5182446
  vertex -0.19655779 0.24677816 -0.3547338
 endloop
endfacet
facet normal -0.69466585 -0.7170143 0.057705708
 outer loop
  vertex -0.108313404 0.64548737 0.42645833
  vertex -0.23182438 0.7631176 0.4012218
  vertex -0.20009987 0.6714994 -0.35526586
 endloop
endfacet
facet normal -0.9630504 0.26154888 0.06423448
 outer loop
  vertex -0.291045 0.9935106 -0.5122503
  vertex -0.20668876 1.2976648 -0.48596942
  vertex -0.23040575 1.2751291 -0.74979144
 endloop
endfacet
facet normal -0.58020306 0.6182144 -0.5302598
 outer loop
  vertex -0.2968484 0.012598829 -0.58138144
  vertex -0.20033422 0.15283284 -0.5234912
  vertex -0.1650502 0.09676636 -0.6274648
 endloop
endfacet
facet normal 0.83524704 -0.07651534 -0.5445254
 outer loop
  vertex -0.1229989 0.40593195 0.69097847
  vertex -0.11889813 0.050526112 0.74720937
  vertex -0.15514539 0.1435698 0.67853546
 endloop
endfacet
facet normal -0.78056955 -0.0035214175 0.62505895
 outer loop
  vertex -0.28287116 0.105613135 0.7355136
  vertex -0.24017824 0.04047032 0.78846127
  vertex -0.19444868 0.45020175 0.84787637
 endloop
endfacet
facet normal -0.21710214 -0.7175121 -0.6618481
 outer loop
  vertex -0.1229989 0.40593195 0.69097847
  vertex -0.27164716 0.44491354 0.6974786
  vertex -0.108313404 0.64548737 0.42645833
 endloop
endfacet
facet normal 0.5318638 -0.12996733 -0.83679706
 outer loop
  vertex -0.20033422 0.15283284 -0.5234912
  vertex -0.2627384 0.7092785 -0.64957947
  vertex -0.078358494 0.6182124 -0.5182446
 endloop
endfacet
facet normal -0.38321128 -0.09036759 -0.91922945
 outer loop
  vertex -0.28287116 0.105613135 0.7355136
  vertex -0.27164716 0.44491354 0.6974786
  vertex -0.15514539 0.1435698 0.67853546
 endloop
endfacet
facet normal -0.5900043 0.8053752 0.05714619
 outer loop
  vertex -0.25791124 1.1779505 0.67234796
  vertex 0.046794705 1.4139987 0.491591
  vertex -0.20668876 1.2976648 -0.48596942
 endloop
endfacet
facet normal -0.6884832 0.03773113 0.7242702
 outer loop
  vertex -0.27164716 0.44491354 0.6974786
  vertex -0.08343496 1.1345989 0.84046155
  vertex -0.25791124 1.1779505 0.67234796
 endloop
endfacet
facet normal 0.8662997 -0.39324248 -0.30803448
 outer loop
  vertex -0.1229989 0.40593195 0.69097847
  vertex -0.108313404 0.64548737 0.42645833
  vertex 0.036314934 0.7950686 0.6422452
 endloop
endfacet
facet normal -0.84850097 0.018195167 0.52888095
 outer loop
  vertex -0.2706036 0.060866233 -0.44736958
  vertex -0.20009987 0.6714994 -0.35526586
  vertex -0.291045 0.9935106 -0.5122503
 endloop
endfacet
facet normal -0.49918273 0.8313746 0.2441984
 outer loop
  vertex 0.046794705 1.4139987 0.491591
  vertex -0.25791124 1.1779505 0.67234796
  vertex -0.032158617 1.2531492 0.87781024
 endloop
endfacet
facet normal -0.96318734 0.2684204 -0.014851789
 outer loop
  vertex -0.20668876 1.2976648 -0.48596942
  vertex -0.291045 0.9935106 -0.5122503
  vertex -0.25791124 1.1779505 0.67234796
 endloop
endfacet
facet normal 0.0024006842 -0.9972038 0.074691094
 outer loop
  vertex 0.11836848 0.6451022 0.41403008
  vertex -0.108313404 0.64548737 0.42645833
  vertex 0.09432507 0.5806106 -0.44622752
 endloop
endfacet
facet normal -0.99292773 0.014566518 -0.11782349
 outer loop
  vertex -0.27164716 0.44491354 0.6974786
  vertex -0.25791124 1.1779505 0.67234796
  vertex -0.23182438 0.7631176 0.4012218
 endloop
endfacet
facet normal -0.99507046 -0.089915976 0.041832358
 outer loop
  vertex -0.23182438 0.7631176 0.4012218
  vertex -0.25791124 1.1779505 0.67234796
  vertex -0.291045 0.9935106 -0.5122503
 endloop
endfacet
facet normal 0.8392105 -0.28562224 0.4627586
 outer loop
  vertex -0.1229989 0.40593195 0.69097847
  vertex 0.036314934 0.7950686 0.6422452
  vertex -0.19444868 0.45020175 0.84787637
 endloop
endfacet
facet normal 0.32996276 -0.17143875 0.9282959
 outer loop
  vertex -0.24017824 0.04047032 0.78846127
  vertex -0.11889813 0.050526112 0.74720937
  vertex -0.19444868 0.45020175 0.84787637
 endloop
endfacet
facet normal -0.42050523 -0.58949447 -0.6896896
 outer loop
  vertex -0.23182438 0.7631176 0.4012218
  vertex -0.108313404 0.64548737 0.42645833
  vertex -0.27164716 0.44491354 0.6974786
 endloop
endfacet
facet normal 0.0099604465 -0.9837051 0.17951307
 outer loop
  vertex -0.16531746 0.007766339 -0.6151609
  vertex -0.1165026 0.038818512 -0.4477081
  vertex -0.2968484 0.012598829 -0.58138144
 endloop
endfacet
facet normal -0.020208068 -0.94392407 -0.32954365
 outer loop
  vertex 0.08314052 1.1373479 0.8223726
  vertex -0.0015452817 0.9886417 1.2535105
  vertex -0.08343496 1.1345989 0.84046155
 endloop
endfacet
facet normal 0.1091819 -0.14440592 0.9834766
 outer loop
  vertex -0.120951906 0.929857 0.8145639
  vertex 0.08314052 1.1373479 0.8223726
  vertex -0.08343496 1.1345989 0.84046155
 endloop
endfacet
facet normal 0.00918153 -0.7835428 0.62126994
 outer loop
  vertex 0.1351451 0.9355357 0.81794107
  vertex -0.120951906 0.929857 0.8145639
  vertex 0.036314934 0.7950686 0.6422452
 endloop
endfacet
facet normal 0.95409894 0.25021812 -0.16457863
 outer loop
  vertex -0.11889813 0.050526112 0.74720937
  vertex -0.14529079 0.026586084 0.55780786
  vertex -0.15514539 0.1435698 0.67853546
 endloop
endfacet
facet normal -0.88786054 -0.4061526 0.2162029
 outer loop
  vertex -0.24017824 0.04047032 0.78846127
  vertex -0.28287116 0.105613135 0.7355136
  vertex -0.28529766 0.02229105 0.5690224
 endloop
endfacet
facet normal -0.34844452 0.92239994 -0.16662732
 outer loop
  vertex -0.15514539 0.1435698 0.67853546
  vertex -0.18903702 0.10644515 0.54389715
  vertex -0.28287116 0.105613135 0.7355136
 endloop
endfacet
facet normal 0.036580447 -0.9965098 0.07503381
 outer loop
  vertex -0.28529766 0.02229105 0.5690224
  vertex -0.14529079 0.026586084 0.55780786
  vertex -0.24017824 0.04047032 0.78846127
 endloop
endfacet
facet normal -0.3468618 -0.2659191 -0.89942974
 outer loop
  vertex -0.19648646 1.69386 -0.6788339
  vertex -0.26276448 1.6065468 -0.6274596
  vertex -0.26296312 1.8912864 -0.7115671
 endloop
endfacet
facet normal 0.47597983 0.86618197 0.15222375
 outer loop
  vertex -0.040199924 1.0752201 1.915404
  vertex 0.050111704 1.1923869 0.9663127
  vertex -0.032158617 1.2531492 0.87781024
 endloop
endfacet
facet normal 0.5194769 -0.004635598 -0.854472
 outer loop
  vertex 0.1059046 1.4844004 -1.0565664
  vertex 0.020717865 1.4647895 -1.1082493
  vertex 0.026628843 1.5466449 -1.1050998
 endloop
endfacet
facet normal 0.026146116 0.452098 -0.89158493
 outer loop
  vertex 0.1059046 1.4844004 -1.0565664
  vertex 0.05271972 1.6089395 -0.9949757
  vertex 0.14805213 1.6592255 -0.9666814
 endloop
endfacet
facet normal 0.06446976 0.39372426 -0.91696507
 outer loop
  vertex -0.045645315 1.6156161 -0.99902475
  vertex 0.14805213 1.6592255 -0.9666814
  vertex 0.05271972 1.6089395 -0.9949757
 endloop
endfacet
facet normal 0.07912533 0.8595127 -0.50495255
 outer loop
  vertex 0.05271972 1.6089395 -0.9949757
  vertex 0.026628843 1.5466449 -1.1050998
  vertex -0.045645315 1.6156161 -0.99902475
 endloop
endfacet
facet normal 0.668739 -0.49504903 -0.5547203
 outer loop
  vertex 0.1059046 1.4844004 -1.0565664
  vertex 0.2782593 1.4149661 -0.7868202
  vertex 0.09758808 1.3879782 -0.98054224
 endloop
endfacet
facet normal 0.88613284 0.3968483 -0.2393326
 outer loop
  vertex 0.26053846 1.6149566 -0.62360317
  vertex 0.14805213 1.6592255 -0.9666814
  vertex 0.1965093 1.7110198 -0.7013855
 endloop
endfacet
facet normal 0.7206571 -0.28371224 -0.6325826
 outer loop
  vertex 0.2782593 1.4149661 -0.7868202
  vertex 0.21230069 1.2008677 -0.7659394
  vertex 0.09758808 1.3879782 -0.98054224
 endloop
endfacet
facet normal 0.9213372 -0.19353303 0.3371686
 outer loop
  vertex 0.2782593 1.4149661 -0.7868202
  vertex 0.26053846 1.6149566 -0.62360317
  vertex 0.16905664 1.4318517 -0.47872382
 endloop
endfacet
facet normal 0.3910985 0.35393742 0.84957063
 outer loop
  vertex 0.13493533 1.6601218 -0.5581151
  vertex -0.03332487 1.3990158 -0.37187812
  vertex 0.16905664 1.4318517 -0.47872382
 endloop
endfacet
facet normal -0.28858325 -0.18834028 -0.93874794
 outer loop
  vertex 0.058227457 0.867891 -0.8640976
  vertex -0.026189197 1.278221 -0.920471
  vertex 0.09758808 1.3879782 -0.98054224
 endloop
endfacet
facet normal 0.42366722 -0.75319123 -0.50319886
 outer loop
  vertex 0.09758808 1.3879782 -0.98054224
  vertex -0.026189197 1.278221 -0.920471
  vertex -0.015180167 1.4085529 -1.1062835
 endloop
endfacet
facet normal 0.63657093 -0.42875606 -0.6410504
 outer loop
  vertex 0.09758808 1.3879782 -0.98054224
  vertex -0.015180167 1.4085529 -1.1062835
  vertex 0.020717865 1.4647895 -1.1082493
 endloop
endfacet
facet normal -0.76191026 -0.14962138 -0.6301636
 outer loop
  vertex 0.16352217 0.13297798 -0.50680035
  vertex 0.118112534 0.04153722 -0.43018603
  vertex 0.13264205 0.64475733 -0.5909773
 endloop
endfacet
facet normal 0.8851606 -0.4572428 0.086137824
 outer loop
  vertex 0.23992528 0.7341543 -0.36238697
  vertex 0.26268288 0.9027988 0.29896408
  vertex 0.11836848 0.6451022 0.41403008
 endloop
endfacet
facet normal 0.7164059 -0.6969391 0.032225125
 outer loop
  vertex 0.09432507 0.5806106 -0.44622752
  vertex 0.23992528 0.7341543 -0.36238697
  vertex 0.11836848 0.6451022 0.41403008
 endloop
endfacet
facet normal -0.6086263 0.7337768 -0.30190346
 outer loop
  vertex 0.118408054 0.059181932 -0.59521335
  vertex 0.16352217 0.13297798 -0.50680035
  vertex 0.19216074 0.10433375 -0.6341545
 endloop
endfacet
facet normal -0.40537736 -0.119485065 -0.90630704
 outer loop
  vertex 0.19216074 0.10433375 -0.6341545
  vertex 0.17312944 -0.00037232754 -0.6118379
  vertex 0.118408054 0.059181932 -0.59521335
 endloop
endfacet
facet normal -0.8372476 -0.06377581 0.5430922
 outer loop
  vertex 0.19421123 0.4522648 0.8454072
  vertex 0.036314934 0.7950686 0.6422452
  vertex 0.11856995 0.35574576 0.71746194
 endloop
endfacet
facet normal 0.78671485 -0.19097291 -0.58703405
 outer loop
  vertex 0.09758808 1.3879782 -0.98054224
  vertex 0.21230069 1.2008677 -0.7659394
  vertex 0.058227457 0.867891 -0.8640976
 endloop
endfacet
facet normal 0.1757747 -0.14853382 -0.97316027
 outer loop
  vertex 0.26405987 0.1335642 -0.4892167
  vertex 0.13264205 0.64475733 -0.5909773
  vertex 0.3072651 0.7093487 -0.56929505
 endloop
endfacet
facet normal -0.43940493 -0.010646221 0.89822596
 outer loop
  vertex 0.23992528 0.7341543 -0.36238697
  vertex 0.118112534 0.04153722 -0.43018603
  vertex 0.22839624 0.084676296 -0.37572482
 endloop
endfacet
facet normal 0.9512973 0.02015204 0.30761597
 outer loop
  vertex 0.29729018 0.020858731 -0.58459747
  vertex 0.26405987 0.1335642 -0.4892167
  vertex 0.22839624 0.084676296 -0.37572482
 endloop
endfacet
facet normal 0.031485237 0.9766357 -0.21258266
 outer loop
  vertex 0.19216074 0.10433375 -0.6341545
  vertex 0.16352217 0.13297798 -0.50680035
  vertex 0.26405987 0.1335642 -0.4892167
 endloop
endfacet
facet normal -0.89049995 -0.19688235 -0.41017956
 outer loop
  vertex 0.18507409 0.15233997 0.6707143
  vertex 0.1404776 0.08062353 0.80195653
  vertex 0.11856995 0.35574576 0.71746194
 endloop
endfacet
facet normal 0.3256596 0.53328675 0.7807376
 outer loop
  vertex 0.22271831 1.258883 -0.3829599
  vertex 0.16905664 1.4318517 -0.47872382
  vertex -0.03332487 1.3990158 -0.37187812
 endloop
endfacet
facet normal 0.8855079 0.0054727998 0.46459204
 outer loop
  vertex 0.26025638 0.3772538 0.7204094
  vertex 0.25660038 1.1493683 0.71828234
  vertex 0.19421123 0.4522648 0.8454072
 endloop
endfacet
facet normal 0.21108542 0.88627553 0.41226047
 outer loop
  vertex 0.050111704 1.1923869 0.9663127
  vertex 0.046794705 1.4139987 0.491591
  vertex -0.032158617 1.2531492 0.87781024
 endloop
endfacet
facet normal 0.93279386 0.35150224 0.079635724
 outer loop
  vertex 0.08314052 1.1373479 0.8223726
  vertex 0.050111704 1.1923869 0.9663127
  vertex 0.041064303 0.9976083 1.9320157
 endloop
endfacet
facet normal 0.50564563 0.11151298 0.8555041
 outer loop
  vertex 0.25660038 1.1493683 0.71828234
  vertex 0.08314052 1.1373479 0.8223726
  vertex 0.1351451 0.9355357 0.81794107
 endloop
endfacet
facet normal 0.72073674 -0.13293736 -0.68034273
 outer loop
  vertex 0.3072651 0.7093487 -0.56929505
  vertex 0.058227457 0.867891 -0.8640976
  vertex 0.21230069 1.2008677 -0.7659394
 endloop
endfacet
facet normal -0.9596952 -0.05057468 -0.27645507
 outer loop
  vertex 0.118112534 0.04153722 -0.43018603
  vertex 0.09432507 0.5806106 -0.44622752
  vertex 0.13264205 0.64475733 -0.5909773
 endloop
endfacet
facet normal -0.027026482 -0.91124463 -0.41097787
 outer loop
  vertex -0.078358494 0.6182124 -0.5182446
  vertex 0.13264205 0.64475733 -0.5909773
  vertex 0.09432507 0.5806106 -0.44622752
 endloop
endfacet
facet normal 0.19949488 0.9023506 0.38205385
 outer loop
  vertex -0.07224796 1.7534657 -0.6703948
  vertex 0.13493533 1.6601218 -0.5581151
  vertex 0.100538395 1.7672442 -0.79316044
 endloop
endfacet
facet normal 0.99754745 0.06569263 -0.02415877
 outer loop
  vertex 0.22271831 1.258883 -0.3829599
  vertex 0.25660038 1.1493683 0.71828234
  vertex 0.26268288 0.9027988 0.29896408
 endloop
endfacet
facet normal 0.44613528 -0.56115055 -0.69718957
 outer loop
  vertex 0.11836848 0.6451022 0.41403008
  vertex 0.26268288 0.9027988 0.29896408
  vertex 0.26025638 0.3772538 0.7204094
 endloop
endfacet
facet normal -0.8432655 -0.0727987 0.5325445
 outer loop
  vertex 0.19421123 0.4522648 0.8454072
  vertex 0.1351451 0.9355357 0.81794107
  vertex 0.036314934 0.7950686 0.6422452
 endloop
endfacet
facet normal 0.30003983 -0.8660162 0.3999898
 outer loop
  vertex 0.08314052 1.1373479 0.8223726
  vertex 0.25660038 1.1493683 0.71828234
  vertex 0.050111704 1.1923869 0.9663127
 endloop
endfacet
facet normal -0.88166744 0.07297013 0.46619514
 outer loop
  vertex 0.11856995 0.35574576 0.71746194
  vertex 0.1404776 0.08062353 0.80195653
  vertex 0.19421123 0.4522648 0.8454072
 endloop
endfacet
facet normal 0.09147201 -0.9435171 0.31844682
 outer loop
  vertex 0.22839624 0.084676296 -0.37572482
  vertex 0.17312944 -0.00037232754 -0.6118379
  vertex 0.29729018 0.020858731 -0.58459747
 endloop
endfacet
facet normal -0.012623097 -0.025202855 0.9996027
 outer loop
  vertex -0.120951906 0.929857 0.8145639
  vertex 0.1351451 0.9355357 0.81794107
  vertex 0.08314052 1.1373479 0.8223726
 endloop
endfacet
facet normal 0.5186918 0.26283497 0.813558
 outer loop
  vertex 0.26053846 1.6149566 -0.62360317
  vertex 0.2682506 1.898063 -0.71998286
  vertex 0.13493533 1.6601218 -0.5581151
 endloop
endfacet
facet normal 0.5370419 -0.28492883 -0.79397833
 outer loop
  vertex 0.1965093 1.7110198 -0.7013855
  vertex 0.2682506 1.898063 -0.71998286
  vertex 0.26053846 1.6149566 -0.62360317
 endloop
endfacet
facet normal -0.8774244 0.4771597 0.04944664
 outer loop
  vertex 0.118112534 0.04153722 -0.43018603
  vertex 0.16352217 0.13297798 -0.50680035
  vertex 0.118408054 0.059181932 -0.59521335
 endloop
endfacet
facet normal 0.0128977755 -0.81313807 -0.58192796
 outer loop
  vertex -0.078358494 0.6182124 -0.5182446
  vertex -0.2627384 0.7092785 -0.64957947
  vertex 0.058227457 0.867891 -0.8640976
 endloop
endfacet
facet normal -0.7766783 -0.13949639 -0.6142569
 outer loop
  vertex -0.033028502 1.5406905 -1.1057717
  vertex -0.09205902 1.3953323 -0.9981218
  vertex -0.17334296 1.5957614 -0.9408618
 endloop
endfacet
facet normal -0.37107214 0.7388716 -0.56247157
 outer loop
  vertex -0.033028502 1.5406905 -1.1057717
  vertex -0.17334296 1.5957614 -0.9408618
  vertex -0.045645315 1.6156161 -0.99902475
 endloop
endfacet
facet normal -0.6248847 0.22851768 0.7465244
 outer loop
  vertex -0.26276448 1.6065468 -0.6274596
  vertex -0.20668876 1.2976648 -0.48596942
  vertex -0.03332487 1.3990158 -0.37187812
 endloop
endfacet
facet normal -0.002325868 0.28328162 0.9590339
 outer loop
  vertex -0.26296312 1.8912864 -0.7115671
  vertex -0.26276448 1.6065468 -0.6274596
  vertex -0.07224796 1.7534657 -0.6703948
 endloop
endfacet
facet normal -0.8229159 0.50906336 -0.2523173
 outer loop
  vertex -0.17334296 1.5957614 -0.9408618
  vertex -0.26276448 1.6065468 -0.6274596
  vertex -0.110497385 1.7596756 -0.81512296
 endloop
endfacet
facet normal -0.8744107 0.4580283 -0.16005003
 outer loop
  vertex -0.110497385 1.7596756 -0.81512296
  vertex -0.11781076 1.6880324 -0.9801947
  vertex -0.17334296 1.5957614 -0.9408618
 endloop
endfacet
facet normal -0.98603046 -0.13319212 0.10001913
 outer loop
  vertex -0.20668876 1.2976648 -0.48596942
  vertex -0.26276448 1.6065468 -0.6274596
  vertex -0.23040575 1.2751291 -0.74979144
 endloop
endfacet
facet normal -0.21421418 0.5195129 0.8271751
 outer loop
  vertex -0.07224796 1.7534657 -0.6703948
  vertex -0.26276448 1.6065468 -0.6274596
  vertex 0.13493533 1.6601218 -0.5581151
 endloop
endfacet
facet normal -0.21456681 0.65502775 0.7244996
 outer loop
  vertex -0.26276448 1.6065468 -0.6274596
  vertex -0.03332487 1.3990158 -0.37187812
  vertex 0.13493533 1.6601218 -0.5581151
 endloop
endfacet
facet normal -0.47810084 -0.65608454 -0.5839286
 outer loop
  vertex -0.23040575 1.2751291 -0.74979144
  vertex -0.09205902 1.3953323 -0.9981218
  vertex -0.026189197 1.278221 -0.920471
 endloop
endfacet
facet normal -0.97285867 0.014690791 -0.2309336
 outer loop
  vertex -0.291045 0.9935106 -0.5122503
  vertex -0.23040575 1.2751291 -0.74979144
  vertex -0.2627384 0.7092785 -0.64957947
 endloop
endfacet
facet normal -0.2941907 -0.9557428 0.002740026
 outer loop
  vertex -0.20009987 0.6714994 -0.35526586
  vertex 0.09432507 0.5806106 -0.44622752
  vertex -0.108313404 0.64548737 0.42645833
 endloop
endfacet
facet normal -0.25877625 -0.95844567 0.12007015
 outer loop
  vertex 0.09432507 0.5806106 -0.44622752
  vertex -0.20009987 0.6714994 -0.35526586
  vertex -0.078358494 0.6182124 -0.5182446
 endloop
endfacet
facet normal -0.059005905 -0.42627734 0.90266603
 outer loop
  vertex -0.19655779 0.24677816 -0.3547338
  vertex -0.2706036 0.060866233 -0.44736958
  vertex -0.1165026 0.038818512 -0.4477081
 endloop
endfacet
facet normal -0.13143879 -0.9241884 0.3586082
 outer loop
  vertex -0.2968484 0.012598829 -0.58138144
  vertex -0.1165026 0.038818512 -0.4477081
  vertex -0.2706036 0.060866233 -0.44736958
 endloop
endfacet
facet normal -0.8130399 0.5800824 -0.049704634
 outer loop
  vertex -0.2968484 0.012598829 -0.58138144
  vertex -0.2706036 0.060866233 -0.44736958
  vertex -0.20033422 0.15283284 -0.5234912
 endloop
endfacet
facet normal -0.25111547 -0.13181542 -0.9589399
 outer loop
  vertex -0.1650502 0.09676636 -0.6274648
  vertex -0.16531746 0.007766339 -0.6151609
  vertex -0.2968484 0.012598829 -0.58138144
 endloop
endfacet
facet normal -0.54877585 -0.2428052 -0.7999317
 outer loop
  vertex -0.2627384 0.7092785 -0.64957947
  vertex -0.20033422 0.15283284 -0.5234912
  vertex -0.2706036 0.060866233 -0.44736958
 endloop
endfacet
facet normal -0.8796957 0.16574967 0.4457157
 outer loop
  vertex -0.27164716 0.44491354 0.6974786
  vertex -0.19444868 0.45020175 0.84787637
  vertex -0.120951906 0.929857 0.8145639
 endloop
endfacet
facet normal -0.030263426 0.05105133 -0.9982374
 outer loop
  vertex -0.1229989 0.40593195 0.69097847
  vertex -0.15514539 0.1435698 0.67853546
  vertex -0.27164716 0.44491354 0.6974786
 endloop
endfacet
facet normal 0.91526526 0.07323611 0.39613888
 outer loop
  vertex -0.1229989 0.40593195 0.69097847
  vertex -0.19444868 0.45020175 0.84787637
  vertex -0.11889813 0.050526112 0.74720937
 endloop
endfacet
facet normal 0.029084558 -0.83052665 0.55621904
 outer loop
  vertex 0.11836848 0.6451022 0.41403008
  vertex 0.036314934 0.7950686 0.6422452
  vertex -0.108313404 0.64548737 0.42645833
 endloop
endfacet
facet normal -0.66931415 0.028736543 0.74242353
 outer loop
  vertex -0.27164716 0.44491354 0.6974786
  vertex -0.120951906 0.929857 0.8145639
  vertex -0.08343496 1.1345989 0.84046155
 endloop
endfacet
facet normal -0.46748835 -0.21401173 -0.85770255
 outer loop
  vertex -0.026189197 1.278221 -0.920471
  vertex 0.058227457 0.867891 -0.8640976
  vertex -0.2627384 0.7092785 -0.64957947
 endloop
endfacet
facet normal -0.6953522 -0.7167019 0.053138964
 outer loop
  vertex -0.040199924 1.0752201 1.915404
  vertex -0.0015452817 0.9886417 1.2535105
  vertex 0.041064303 0.9976083 1.9320157
 endloop
endfacet
facet normal -0.96143085 -0.27495733 -0.0070190425
 outer loop
  vertex -0.20009987 0.6714994 -0.35526586
  vertex -0.23182438 0.7631176 0.4012218
  vertex -0.291045 0.9935106 -0.5122503
 endloop
endfacet
facet normal -0.6372616 -0.09893894 -0.76427
 outer loop
  vertex -0.026189197 1.278221 -0.920471
  vertex -0.2627384 0.7092785 -0.64957947
  vertex -0.23040575 1.2751291 -0.74979144
 endloop
endfacet
facet normal -0.8879259 0.08014744 0.45295015
 outer loop
  vertex -0.28287116 0.105613135 0.7355136
  vertex -0.19444868 0.45020175 0.84787637
  vertex -0.27164716 0.44491354 0.6974786
 endloop
endfacet
facet normal 0.71314013 -0.060769953 0.69838256
 outer loop
  vertex -0.120951906 0.929857 0.8145639
  vertex -0.19444868 0.45020175 0.84787637
  vertex 0.036314934 0.7950686 0.6422452
 endloop
endfacet
facet normal -0.683658 0.06674418 0.7267442
 outer loop
  vertex -0.08343496 1.1345989 0.84046155
  vertex -0.032158617 1.2531492 0.87781024
  vertex -0.25791124 1.1779505 0.67234796
 endloop
endfacet
facet normal 0.96124536 -0.040585 -0.27269068
 outer loop
  vertex -0.1650502 0.09676636 -0.6274648
  vertex -0.1165026 0.038818512 -0.4477081
  vertex -0.16531746 0.007766339 -0.6151609
 endloop
endfacet
facet normal -0.3899312 -0.1524417 -0.9081383
 outer loop
  vertex -0.045645315 1.6156161 -0.99902475
  vertex -0.17334296 1.5957614 -0.9408618
  vertex -0.11781076 1.6880324 -0.9801947
 endloop
endfacet
facet normal 0.59866345 0.7913029 -0.124264434
 outer loop
  vertex -0.07224796 1.7534657 -0.6703948
  vertex -0.110497385 1.7596756 -0.81512296
  vertex -0.26296312 1.8912864 -0.7115671
 endloop
endfacet
facet normal -0.71170735 -0.34143108 -0.6139197
 outer loop
  vertex -0.110497385 1.7596756 -0.81512296
  vertex -0.19648646 1.69386 -0.6788339
  vertex -0.26296312 1.8912864 -0.7115671
 endloop
endfacet
facet normal 0.81593436 0.57712525 -0.034315743
 outer loop
  vertex -0.1650502 0.09676636 -0.6274648
  vertex -0.20033422 0.15283284 -0.5234912
  vertex -0.1165026 0.038818512 -0.4477081
 endloop
endfacet
facet normal -0.66912794 0.66842616 -0.32476798
 outer loop
  vertex -0.28287116 0.105613135 0.7355136
  vertex -0.18903702 0.10644515 0.54389715
  vertex -0.28529766 0.02229105 0.5690224
 endloop
endfacet
facet normal 0.8515926 0.40948784 -0.3272765
 outer loop
  vertex -0.14529079 0.026586084 0.55780786
  vertex -0.18903702 0.10644515 0.54389715
  vertex -0.15514539 0.1435698 0.67853546
 endloop
endfacet
facet normal 0.11864874 -0.98702073 0.10822432
 outer loop
  vertex -0.11889813 0.050526112 0.74720937
  vertex -0.24017824 0.04047032 0.78846127
  vertex -0.14529079 0.026586084 0.55780786
 endloop
endfacet
facet normal -0.071701184 -0.20915692 -0.97524995
 outer loop
  vertex -0.28529766 0.02229105 0.5690224
  vertex -0.18903702 0.10644515 0.54389715
  vertex -0.14529079 0.026586084 0.55780786
 endloop
endfacet
facet normal -0.52076054 0.8530445 0.03351828
 outer loop
  vertex -0.03332487 1.3990158 -0.37187812
  vertex -0.20668876 1.2976648 -0.48596942
  vertex 0.046794705 1.4139987 0.491591
 endloop
endfacet
facet normal -0.9228171 0.3808237 0.058152758
 outer loop
  vertex -0.040199924 1.0752201 1.915404
  vertex -0.032158617 1.2531492 0.87781024
  vertex -0.08343496 1.1345989 0.84046155
 endloop
endfacet
facet normal -0.8834962 -0.46833852 0.009664369
 outer loop
  vertex -0.040199924 1.0752201 1.915404
  vertex -0.08343496 1.1345989 0.84046155
  vertex -0.0015452817 0.9886417 1.2535105
 endloop
endfacet
facet normal -0.07453323 0.81206065 -0.5787938
 outer loop
  vertex -0.033028502 1.5406905 -1.1057717
  vertex -0.045645315 1.6156161 -0.99902475
  vertex 0.026628843 1.5466449 -1.1050998
 endloop
endfacet
facet normal 0.5209934 -0.5557397 -0.6478574
 outer loop
  vertex 0.09758808 1.3879782 -0.98054224
  vertex 0.020717865 1.4647895 -1.1082493
  vertex 0.1059046 1.4844004 -1.0565664
 endloop
endfacet
facet normal 0.70494115 0.5326592 -0.4683291
 outer loop
  vertex 0.05271972 1.6089395 -0.9949757
  vertex 0.1059046 1.4844004 -1.0565664
  vertex 0.026628843 1.5466449 -1.1050998
 endloop
endfacet
facet normal 0.84842765 0.06550685 -0.52524215
 outer loop
  vertex 0.14805213 1.6592255 -0.9666814
  vertex 0.2782593 1.4149661 -0.7868202
  vertex 0.1059046 1.4844004 -1.0565664
 endloop
endfacet
facet normal 0.660187 0.70529675 -0.25828192
 outer loop
  vertex 0.14805213 1.6592255 -0.9666814
  vertex 0.100538395 1.7672442 -0.79316044
  vertex 0.1965093 1.7110198 -0.7013855
 endloop
endfacet
facet normal 0.91831553 0.2959342 -0.26290584
 outer loop
  vertex 0.2782593 1.4149661 -0.7868202
  vertex 0.14805213 1.6592255 -0.9666814
  vertex 0.26053846 1.6149566 -0.62360317
 endloop
endfacet
facet normal 0.9089275 -0.24727692 0.33571556
 outer loop
  vertex 0.16905664 1.4318517 -0.47872382
  vertex 0.21230069 1.2008677 -0.7659394
  vertex 0.2782593 1.4149661 -0.7868202
 endloop
endfacet
facet normal 0.008572489 0.9171557 -0.39843705
 outer loop
  vertex 0.100538395 1.7672442 -0.79316044
  vertex -0.11781076 1.6880324 -0.9801947
  vertex -0.110497385 1.7596756 -0.81512296
 endloop
endfacet
facet normal 0.11835464 0.85719585 -0.50120604
 outer loop
  vertex 0.100538395 1.7672442 -0.79316044
  vertex 0.14805213 1.6592255 -0.9666814
  vertex -0.11781076 1.6880324 -0.9801947
 endloop
endfacet
facet normal 0.5287893 0.34824327 0.77402097
 outer loop
  vertex 0.26053846 1.6149566 -0.62360317
  vertex 0.13493533 1.6601218 -0.5581151
  vertex 0.16905664 1.4318517 -0.47872382
 endloop
endfacet
facet normal 0.24753138 -0.24479398 -0.9374456
 outer loop
  vertex 0.29729018 0.020858731 -0.58459747
  vertex 0.17312944 -0.00037232754 -0.6118379
  vertex 0.19216074 0.10433375 -0.6341545
 endloop
endfacet
facet normal 0.94982445 -0.023266181 0.31191695
 outer loop
  vertex 0.22839624 0.084676296 -0.37572482
  vertex 0.3072651 0.7093487 -0.56929505
  vertex 0.23992528 0.7341543 -0.36238697
 endloop
endfacet
facet normal 0.95736957 -0.03190957 0.287098
 outer loop
  vertex 0.26405987 0.1335642 -0.4892167
  vertex 0.3072651 0.7093487 -0.56929505
  vertex 0.22839624 0.084676296 -0.37572482
 endloop
endfacet
facet normal -0.5018499 0.0035937692 0.86494726
 outer loop
  vertex 0.09432507 0.5806106 -0.44622752
  vertex 0.118112534 0.04153722 -0.43018603
  vertex 0.23992528 0.7341543 -0.36238697
 endloop
endfacet
facet normal 0.33345494 -0.6835406 -0.649292
 outer loop
  vertex 0.13264205 0.64475733 -0.5909773
  vertex 0.058227457 0.867891 -0.8640976
  vertex 0.3072651 0.7093487 -0.56929505
 endloop
endfacet
facet normal 0.2248432 -0.9323322 0.2831999
 outer loop
  vertex 0.118112534 0.04153722 -0.43018603
  vertex 0.17312944 -0.00037232754 -0.6118379
  vertex 0.22839624 0.084676296 -0.37572482
 endloop
endfacet
facet normal 0.6755376 0.58213305 -0.4525153
 outer loop
  vertex 0.29729018 0.020858731 -0.58459747
  vertex 0.19216074 0.10433375 -0.6341545
  vertex 0.26405987 0.1335642 -0.4892167
 endloop
endfacet
facet normal 0.6658946 0.7300849 0.15349388
 outer loop
  vertex -0.040199924 1.0752201 1.915404
  vertex 0.041064303 0.9976083 1.9320157
  vertex 0.050111704 1.1923869 0.9663127
 endloop
endfacet
facet normal -0.9555474 -0.21368842 -0.2031415
 outer loop
  vertex 0.036314934 0.7950686 0.6422452
  vertex 0.11836848 0.6451022 0.41403008
  vertex 0.11856995 0.35574576 0.71746194
 endloop
endfacet
facet normal 0.123260535 -0.71813315 -0.68490267
 outer loop
  vertex 0.11856995 0.35574576 0.71746194
  vertex 0.11836848 0.6451022 0.41403008
  vertex 0.26025638 0.3772538 0.7204094
 endloop
endfacet
facet normal 0.17118394 -0.14983712 -0.97377867
 outer loop
  vertex 0.26405987 0.1335642 -0.4892167
  vertex 0.16352217 0.13297798 -0.50680035
  vertex 0.13264205 0.64475733 -0.5909773
 endloop
endfacet
facet normal -0.013089155 0.21989922 -0.9754348
 outer loop
  vertex 0.11856995 0.35574576 0.71746194
  vertex 0.26025638 0.3772538 0.7204094
  vertex 0.18507409 0.15233997 0.6707143
 endloop
endfacet
facet normal 0.33322343 -0.15687606 0.9297053
 outer loop
  vertex 0.1404776 0.08062353 0.80195653
  vertex 0.2881559 0.041553963 0.7424334
  vertex 0.19421123 0.4522648 0.8454072
 endloop
endfacet
facet normal 0.76589686 0.64170235 0.040250614
 outer loop
  vertex 0.25660038 1.1493683 0.71828234
  vertex 0.22271831 1.258883 -0.3829599
  vertex 0.046794705 1.4139987 0.491591
 endloop
endfacet
facet normal 0.50687087 0.110538065 0.8549054
 outer loop
  vertex 0.25660038 1.1493683 0.71828234
  vertex 0.1351451 0.9355357 0.81794107
  vertex 0.19421123 0.4522648 0.8454072
 endloop
endfacet
facet normal -0.7444003 -0.6638071 -0.07230724
 outer loop
  vertex 0.17312944 -0.00037232754 -0.6118379
  vertex 0.118112534 0.04153722 -0.43018603
  vertex 0.118408054 0.059181932 -0.59521335
 endloop
endfacet
facet normal 0.47726688 0.8767419 -0.05949789
 outer loop
  vertex -0.03332487 1.3990158 -0.37187812
  vertex 0.046794705 1.4139987 0.491591
  vertex 0.22271831 1.258883 -0.3829599
 endloop
endfacet
facet normal 0.5693103 0.74646616 0.344491
 outer loop
  vertex 0.050111704 1.1923869 0.9663127
  vertex 0.25660038 1.1493683 0.71828234
  vertex 0.046794705 1.4139987 0.491591
 endloop
endfacet
facet normal 0.80931157 -0.58579755 -0.043082654
 outer loop
  vertex -0.0015452817 0.9886417 1.2535105
  vertex 0.08314052 1.1373479 0.8223726
  vertex 0.041064303 0.9976083 1.9320157
 endloop
endfacet
facet normal 0.96276116 0.26219675 -0.065907225
 outer loop
  vertex 0.21230069 1.2008677 -0.7659394
  vertex 0.16905664 1.4318517 -0.47872382
  vertex 0.22271831 1.258883 -0.3829599
 endloop
endfacet
facet normal 0.9986216 0.031088825 -0.042290993
 outer loop
  vertex 0.22271831 1.258883 -0.3829599
  vertex 0.26268288 0.9027988 0.29896408
  vertex 0.23992528 0.7341543 -0.36238697
 endloop
endfacet
facet normal -0.111705415 -0.7842622 -0.6102908
 outer loop
  vertex 0.13264205 0.64475733 -0.5909773
  vertex -0.078358494 0.6182124 -0.5182446
  vertex 0.058227457 0.867891 -0.8640976
 endloop
endfacet
facet normal 0.9841899 0.16918722 -0.052400656
 outer loop
  vertex 0.21230069 1.2008677 -0.7659394
  vertex 0.22271831 1.258883 -0.3829599
  vertex 0.3072651 0.7093487 -0.56929505
 endloop
endfacet
facet normal 0.95153135 0.04314163 0.30451107
 outer loop
  vertex 0.23992528 0.7341543 -0.36238697
  vertex 0.3072651 0.7093487 -0.56929505
  vertex 0.22271831 1.258883 -0.3829599
 endloop
endfacet
facet normal 0.9035882 0.10238731 0.4159869
 outer loop
  vertex 0.26025638 0.3772538 0.7204094
  vertex 0.19421123 0.4522648 0.8454072
  vertex 0.2881559 0.041553963 0.7424334
 endloop
endfacet
facet normal 0.9999201 0.004766906 0.011701482
 outer loop
  vertex 0.26025638 0.3772538 0.7204094
  vertex 0.26268288 0.9027988 0.29896408
  vertex 0.25660038 1.1493683 0.71828234
 endloop
endfacet
facet normal -0.66614014 0.6370619 0.38782647
 outer loop
  vertex 0.2682506 1.898063 -0.71998286
  vertex 0.100538395 1.7672442 -0.79316044
  vertex 0.13493533 1.6601218 -0.5581151
 endloop
endfacet
facet normal 0.5652886 -0.29347077 -0.7709239
 outer loop
  vertex 0.2682506 1.898063 -0.71998286
  vertex 0.1965093 1.7110198 -0.7013855
  vertex 0.100538395 1.7672442 -0.79316044
 endloop
endfacet
facet normal -0.94242686 0.29382625 -0.15968002
 outer loop
  vertex 0.15988842 0.010119721 0.5576608
  vertex 0.1404776 0.08062353 0.80195653
  vertex 0.18507409 0.15233997 0.6707143
 endloop
endfacet
facet normal -0.14602211 -0.9535204 0.26358387
 outer loop
  vertex 0.2881559 0.041553963 0.7424334
  vertex 0.1404776 0.08062353 0.80195653
  vertex 0.15988842 0.010119721 0.5576608
 endloop
endfacet
facet normal 0.7348117 0.67821807 -0.008486678
 outer loop
  vertex 0.18507409 0.15233997 0.6707143
  vertex 0.2881559 0.041553963 0.7424334
  vertex 0.30154723 0.025194254 0.5945128
 endloop
endfacet
facet normal 0.26712418 -0.21227126 -0.9399924
 outer loop
  vertex 0.30154723 0.025194254 0.5945128
  vertex 0.15988842 0.010119721 0.5576608
  vertex 0.20630117 0.10895995 0.5485299
 endloop
endfacet
facet normal 0.6899284 0.7115953 -0.13278167
 outer loop
  vertex 0.30154723 0.025194254 0.5945128
  vertex 0.20630117 0.10895995 0.5485299
  vertex 0.18507409 0.15233997 0.6707143
 endloop
endfacet
facet normal -0.876557 0.38491517 -0.28894335
 outer loop
  vertex 0.15988842 0.010119721 0.5576608
  vertex 0.18507409 0.15233997 0.6707143
  vertex 0.20630117 0.10895995 0.5485299
 endloop
endfacet
facet normal 0.07512536 -0.9903649 0.11633342
 outer loop
  vertex 0.30154723 0.025194254 0.5945128
  vertex 0.2881559 0.041553963 0.7424334
  vertex 0.15988842 0.010119721 0.5576608
 endloop
endfacet
facet normal 0.5659904 -0.007046008 -0.8243817
 outer loop
  vertex 0.26025638 0.3772538 0.7204094
  vertex 0.2881559 0.041553963 0.7424334
  vertex 0.18507409 0.15233997 0.6707143
 endloop
endfacet
endsolid 
